<svg width="34" height="108" viewBox="0 0 34 108" fill="none" xmlns="http://www.w3.org/2000/svg">
<path fill-rule="evenodd" clip-rule="evenodd" d="M50.208 0C55.7306 0.000263555 60.208 4.47732 60.208 10V98C60.208 103.523 55.7299 108 50.207 108H19.207C13.6844 108 9.20801 103.523 9.20801 98V53.9658C4.05552 53.562 1.78814e-07 49.2562 0 44V18C1.78814e-07 12.6772 4.1588 8.32676 9.4043 8.01855C10.3237 3.44488 14.3636 0 19.208 0H50.208Z" fill="#272727" fill-opacity="0.2"/>
<path fill-rule="evenodd" clip-rule="evenodd" d="M13.25 21.75C13.25 22.5784 13.9216 23.25 14.75 23.25L25.25 23.25C26.0784 23.25 26.75 22.5784 26.75 21.75V13.5C26.75 12.6716 26.0784 12 25.25 12L17.75 12C15.2647 12 13.25 14.0147 13.25 16.5L13.25 21.75ZM14.75 17.25V21.75L25.25 21.75V13.5L17.75 13.5V16.5V17.25H17H14.75ZM16.25 13.9013C15.5624 14.2991 15.0474 14.9619 14.8445 15.75H16.25V13.9013Z" fill="white"/>
<path d="M24 93.8438L20.6619 96.3438V97.2386H24V98.1193H16.7273V97.2386H19.8807V96.8551L16.7273 93.9432V92.892L19.9233 95.8324L24 92.7926V93.8438ZM24 91.7681H18.5455V89.538C18.5455 88.9509 18.678 88.4845 18.9432 88.1388C19.2083 87.7932 19.5587 87.6204 19.9943 87.6204C20.3258 87.6204 20.5826 87.7186 20.7649 87.9151C20.9448 88.1116 21.0668 88.3638 21.1307 88.6715C21.1591 88.4703 21.2301 88.275 21.3438 88.0856C21.4574 87.8938 21.6136 87.7352 21.8125 87.6097C22.009 87.4843 22.2505 87.4215 22.5369 87.4215C22.8163 87.4215 23.0661 87.4925 23.2862 87.6346C23.5064 87.7766 23.6804 87.9802 23.8082 88.2454C23.9361 88.5105 24 88.8278 24 89.1971V91.7681ZM23.233 90.9727V89.1971C23.233 88.9083 23.1643 88.6822 23.027 88.5188C22.8897 88.3555 22.7027 88.2738 22.4659 88.2738C22.1842 88.2738 21.9628 88.3555 21.8018 88.5188C21.6385 88.6822 21.5568 88.9083 21.5568 89.1971V90.9727H23.233ZM20.8324 90.9727V89.538C20.8324 89.3131 20.8016 89.1201 20.7401 88.9592C20.6761 88.7982 20.5862 88.6751 20.4702 88.5898C20.3518 88.5022 20.2121 88.4585 20.0511 88.4585C19.8215 88.4585 19.6416 88.5543 19.5114 88.7461C19.3788 88.9379 19.3125 89.2018 19.3125 89.538V90.9727H20.8324ZM24.1278 84.5478C24.1278 84.8934 24.0627 85.2071 23.9325 85.4888C23.8 85.7705 23.6094 85.9943 23.3608 86.16C23.1098 86.3257 22.8068 86.4086 22.4517 86.4086C22.1392 86.4086 21.8859 86.347 21.6918 86.2239C21.4953 86.1008 21.3414 85.9363 21.2301 85.7303C21.1188 85.5243 21.036 85.2971 20.9815 85.0485C20.9247 84.7975 20.8797 84.5454 20.8466 84.2921C20.804 83.9606 20.772 83.6919 20.7507 83.486C20.727 83.2776 20.688 83.1261 20.6335 83.0314C20.5791 82.9344 20.4844 82.8858 20.3494 82.8858H20.321C19.9706 82.8858 19.6984 82.9817 19.5043 83.1735C19.3101 83.3629 19.2131 83.6505 19.2131 84.0364C19.2131 84.4365 19.3007 84.7502 19.4759 84.9775C19.651 85.2047 19.8381 85.3645 20.0369 85.4569L19.7528 86.2523C19.4214 86.1103 19.1634 85.9209 18.9787 85.6841C18.7917 85.445 18.6615 85.1846 18.5881 84.9029C18.5123 84.6188 18.4744 84.3394 18.4744 84.0648C18.4744 83.8896 18.4957 83.6884 18.5384 83.4611C18.5786 83.2315 18.6626 83.0101 18.7905 82.7971C18.9183 82.5816 19.1113 82.4029 19.3693 82.2608C19.6274 82.1188 19.973 82.0478 20.4063 82.0478H24V82.8858H23.2614V82.9284C23.3797 82.9853 23.5064 83.08 23.6413 83.2125C23.7763 83.3451 23.8911 83.5215 23.9858 83.7417C24.0805 83.9618 24.1278 84.2305 24.1278 84.5478ZM23.375 84.4199C23.375 84.0885 23.3099 83.8091 23.1797 83.5819C23.0495 83.3522 22.8814 83.1794 22.6754 83.0634C22.4695 82.945 22.2528 82.8858 22.0256 82.8858H21.2585C21.3011 82.9213 21.3402 82.9995 21.3757 83.1202C21.4089 83.2386 21.4384 83.3759 21.4645 83.5321C21.4882 83.686 21.5095 83.8364 21.5284 83.9831C21.545 84.1275 21.5592 84.2447 21.571 84.3347C21.5994 84.5525 21.6456 84.7561 21.7095 84.9455C21.7711 85.1325 21.8646 85.284 21.9901 85.4C22.1132 85.5137 22.2812 85.5705 22.4943 85.5705C22.7855 85.5705 23.0057 85.4628 23.1548 85.2473C23.3016 85.0295 23.375 84.7537 23.375 84.4199ZM24 81.0011H23.2188V80.8022C23.2188 80.6388 23.1868 80.5027 23.1229 80.3938C23.0566 80.2849 22.9418 80.1973 22.7784 80.131C22.6127 80.0624 22.383 80.0103 22.0895 79.9748C21.7936 79.9369 21.4171 79.9097 20.9602 79.8931L18.5455 79.7937V76.1573H24V76.9954H19.3267V78.9982L21.2727 79.0835C21.7202 79.1024 22.1143 79.1426 22.4553 79.2042C22.7938 79.2634 23.0779 79.3545 23.3075 79.4776C23.5372 79.5984 23.71 79.7594 23.826 79.9606C23.942 80.1618 24 80.4139 24 80.717V81.0011ZM22.7642 73.7816L18.5455 71.1538V70.1879H24V71.0259H19.7813L24 73.6396V74.6197H18.5455V73.7816H22.7642ZM25.8608 66.437H16.7273V65.5989H25.8608V66.437ZM24.1136 66.437C24.1136 66.8063 24.0473 67.1425 23.9148 67.4455C23.7798 67.7485 23.5893 68.0089 23.343 68.2267C23.0945 68.4445 22.7973 68.6126 22.4517 68.731C22.1061 68.8494 21.7225 68.9086 21.3011 68.9086C20.875 68.9086 20.4891 68.8494 20.1435 68.731C19.7955 68.6126 19.4972 68.4445 19.2486 68.2267C19 68.0089 18.8094 67.7485 18.6768 67.4455C18.5419 67.1425 18.4744 66.8063 18.4744 66.437V66.1813H24.1136V66.437ZM23.3608 66.437V66.2949H19.2273V66.437C19.2273 66.7163 19.2841 66.959 19.3977 67.165C19.509 67.3709 19.6617 67.5414 19.8558 67.6763C20.0476 67.8089 20.2678 67.9083 20.5163 67.9746C20.7649 68.0385 21.0265 68.0705 21.3011 68.0705C21.6657 68.0705 22.0043 68.0125 22.3168 67.8965C22.6293 67.7805 22.8814 67.6017 23.0732 67.3603C23.2649 67.1188 23.3608 66.811 23.3608 66.437ZM24.1136 65.5989V65.8546H18.4744V65.5989C18.4744 65.2296 18.5419 64.8934 18.6768 64.5904C18.8094 64.2873 19 64.0269 19.2486 63.8091C19.4972 63.5913 19.7955 63.4232 20.1435 63.3049C20.4891 63.1865 20.875 63.1273 21.3011 63.1273C21.7225 63.1273 22.1061 63.1865 22.4517 63.3049C22.7973 63.4232 23.0945 63.5913 23.343 63.8091C23.5893 64.0269 23.7798 64.2873 23.9148 64.5904C24.0473 64.8934 24.1136 65.2296 24.1136 65.5989ZM23.3608 65.5989C23.3608 65.3172 23.3063 65.0745 23.1974 64.8709C23.0862 64.665 22.9347 64.4957 22.7429 64.3631C22.5488 64.2282 22.3286 64.1287 22.0824 64.0648C21.8338 63.9985 21.5734 63.9654 21.3011 63.9654C20.9366 63.9654 20.5968 64.0234 20.282 64.1394C19.9671 64.2554 19.7126 64.4341 19.5185 64.6756C19.3243 64.9171 19.2273 65.2248 19.2273 65.5989V65.7409H23.3608V65.5989ZM22.7642 61.0082L18.5455 58.3803V57.4144H24V58.2525H19.7813L24 60.8661V61.8462H18.5455V61.0082H22.7642ZM24 55.8794H18.5455V55.0414H20.9176V54.4874L18.5455 52.5272V51.4476L21.1733 53.6493L24 51.4192V52.4988L21.6989 54.2885V55.0414H24V55.8794ZM24.1278 48.9032C24.1278 49.2489 24.0627 49.5626 23.9325 49.8443C23.8 50.126 23.6094 50.3497 23.3608 50.5154C23.1098 50.6812 22.8068 50.764 22.4517 50.764C22.1392 50.764 21.8859 50.7025 21.6918 50.5794C21.4953 50.4563 21.3414 50.2917 21.2301 50.0858C21.1188 49.8798 21.036 49.6525 20.9815 49.4039C20.9247 49.153 20.8797 48.9009 20.8466 48.6475C20.804 48.3161 20.772 48.0474 20.7507 47.8414C20.727 47.6331 20.688 47.4816 20.6335 47.3869C20.5791 47.2898 20.4844 47.2413 20.3494 47.2413H20.321C19.9706 47.2413 19.6984 47.3372 19.5043 47.5289C19.3101 47.7183 19.2131 48.006 19.2131 48.3919C19.2131 48.792 19.3007 49.1056 19.4759 49.3329C19.651 49.5602 19.8381 49.72 20.0369 49.8123L19.7528 50.6078C19.4214 50.4657 19.1634 50.2763 18.9787 50.0396C18.7917 49.8005 18.6615 49.5401 18.5881 49.2583C18.5123 48.9743 18.4744 48.6949 18.4744 48.4203C18.4744 48.2451 18.4957 48.0439 18.5384 47.8166C18.5786 47.5869 18.6626 47.3656 18.7905 47.1525C18.9183 46.9371 19.1113 46.7583 19.3693 46.6163C19.6274 46.4743 19.973 46.4032 20.4063 46.4032H24V47.2413H23.2614V47.2839C23.3797 47.3407 23.5064 47.4354 23.6413 47.568C23.7763 47.7006 23.8911 47.877 23.9858 48.0971C24.0805 48.3173 24.1278 48.586 24.1278 48.9032ZM23.375 48.7754C23.375 48.444 23.3099 48.1646 23.1797 47.9373C23.0495 47.7077 22.8814 47.5349 22.6754 47.4189C22.4695 47.3005 22.2528 47.2413 22.0256 47.2413H21.2585C21.3011 47.2768 21.3402 47.3549 21.3757 47.4757C21.4089 47.594 21.4384 47.7314 21.4645 47.8876C21.4882 48.0415 21.5095 48.1918 21.5284 48.3386C21.545 48.483 21.5592 48.6002 21.571 48.6902C21.5994 48.908 21.6456 49.1116 21.7095 49.301C21.7711 49.488 21.8646 49.6395 21.9901 49.7555C22.1132 49.8691 22.2812 49.926 22.4943 49.926C22.7855 49.926 23.0057 49.8182 23.1548 49.6028C23.3016 49.385 23.375 49.1092 23.375 48.7754ZM18.5455 40.5838H23.2188L23.2188 39.8168H25.7614L25.7614 40.6548H24V44.8736H18.5455V44.0355H23.2188V41.4219H18.5455V40.5838ZM22.7642 37.6879L18.5455 35.06V34.0941H24V34.9322H19.7813L24 37.5458V38.5259H18.5455V37.6879H22.7642ZM24 29.2779H19.3125V30.7267C19.3125 31.0534 19.3883 31.3103 19.5398 31.4973C19.6913 31.6844 19.8996 31.7779 20.1648 31.7779C20.4252 31.7779 20.63 31.6938 20.7791 31.5257C20.9283 31.3553 21.0028 31.1221 21.0028 30.8262V29.0648H21.7841V30.8262C21.7841 31.1955 21.719 31.5139 21.5888 31.7814C21.4586 32.0489 21.2727 32.2549 21.0313 32.3993C20.7874 32.5437 20.4986 32.6159 20.1648 32.6159C19.8286 32.6159 19.5398 32.5402 19.2983 32.3887C19.0568 32.2372 18.871 32.0205 18.7408 31.7388C18.6106 31.4547 18.5455 31.1174 18.5455 30.7267V28.4824H24V29.2779ZM24 32.9142L21.2869 31.3659V30.4569L24 32.0051V32.9142Z" fill="white"/>
</svg>
