<svg width="18" height="18" viewBox="0 0 18 18" fill="none" xmlns="http://www.w3.org/2000/svg">
<path fill-rule="evenodd" clip-rule="evenodd" d="M2.25 12.75C2.25 13.5784 2.92157 14.25 3.75 14.25L14.25 14.25C15.0784 14.25 15.75 13.5784 15.75 12.75L15.75 4.5C15.75 3.67157 15.0784 3 14.25 3L6.75 3C4.26472 3 2.25 5.01472 2.25 7.5L2.25 12.75ZM3.75 8.25L3.75 12.75L14.25 12.75L14.25 4.5L6.75 4.5L6.75 7.5V8.25H6H3.75ZM5.25 4.90135C4.56243 5.29909 4.04736 5.96187 3.84451 6.75L5.25 6.75V4.90135Z" fill="white"/>
</svg>
