<svg width="18" height="18" viewBox="0 0 18 18" fill="none" xmlns="http://www.w3.org/2000/svg">
<path fill-rule="evenodd" clip-rule="evenodd" d="M13.5 7.35366C13.5 9.6052 12.1009 11.6344 9 14.4849C5.89911 11.6344 4.5 9.6052 4.5 7.35366C4.5 4.9839 6.47959 3 9 3C11.5204 3 13.5 4.9839 13.5 7.35366ZM15 7.35366C15 10.3932 13.011 12.8917 9.65642 15.9163C9.28337 16.2526 8.71663 16.2526 8.34358 15.9163C4.98898 12.8917 3 10.3932 3 7.35366C3 4.12077 5.68629 1.5 9 1.5C12.3137 1.5 15 4.12077 15 7.35366ZM10.5 7.5C10.5 8.32843 9.82843 9 9 9C8.17157 9 7.5 8.32843 7.5 7.5C7.5 6.67157 8.17157 6 9 6C9.82843 6 10.5 6.67157 10.5 7.5ZM12 7.5C12 9.15685 10.6569 10.5 9 10.5C7.34315 10.5 6 9.15685 6 7.5C6 5.84315 7.34315 4.5 9 4.5C10.6569 4.5 12 5.84315 12 7.5Z" fill="white"/>
<path fill-rule="evenodd" clip-rule="evenodd" d="M13.5 7.35366C13.5 9.6052 12.1009 11.6344 9 14.4849C5.89911 11.6344 4.5 9.6052 4.5 7.35366C4.5 4.9839 6.47959 3 9 3C11.5204 3 13.5 4.9839 13.5 7.35366ZM15 7.35366C15 10.3932 13.011 12.8917 9.65642 15.9163C9.28337 16.2526 8.71663 16.2526 8.34358 15.9163C4.98898 12.8917 3 10.3932 3 7.35366C3 4.12077 5.68629 1.5 9 1.5C12.3137 1.5 15 4.12077 15 7.35366ZM10.5 7.5C10.5 8.32843 9.82843 9 9 9C8.17157 9 7.5 8.32843 7.5 7.5C7.5 6.67157 8.17157 6 9 6C9.82843 6 10.5 6.67157 10.5 7.5ZM12 7.5C12 9.15685 10.6569 10.5 9 10.5C7.34315 10.5 6 9.15685 6 7.5C6 5.84315 7.34315 4.5 9 4.5C10.6569 4.5 12 5.84315 12 7.5Z" fill="black" fill-opacity="0.3"/>
<path fill-rule="evenodd" clip-rule="evenodd" d="M13.5 7.35366C13.5 9.6052 12.1009 11.6344 9 14.4849C5.89911 11.6344 4.5 9.6052 4.5 7.35366C4.5 4.9839 6.47959 3 9 3C11.5204 3 13.5 4.9839 13.5 7.35366ZM15 7.35366C15 10.3932 13.011 12.8917 9.65642 15.9163C9.28337 16.2526 8.71663 16.2526 8.34358 15.9163C4.98898 12.8917 3 10.3932 3 7.35366C3 4.12077 5.68629 1.5 9 1.5C12.3137 1.5 15 4.12077 15 7.35366ZM10.5 7.5C10.5 8.32843 9.82843 9 9 9C8.17157 9 7.5 8.32843 7.5 7.5C7.5 6.67157 8.17157 6 9 6C9.82843 6 10.5 6.67157 10.5 7.5ZM12 7.5C12 9.15685 10.6569 10.5 9 10.5C7.34315 10.5 6 9.15685 6 7.5C6 5.84315 7.34315 4.5 9 4.5C10.6569 4.5 12 5.84315 12 7.5Z" fill="white"/>
</svg>
