<svg width="18" height="16" viewBox="0 0 18 16" fill="none" xmlns="http://www.w3.org/2000/svg">
<path fill-rule="evenodd" clip-rule="evenodd" d="M15.75 3.33268C15.75 2.96449 15.4142 2.66602 15 2.66602H3C2.58579 2.66602 2.25 2.96449 2.25 3.33268C2.25 3.70087 2.58579 3.99935 3 3.99935H15C15.4142 3.99935 15.75 3.70087 15.75 3.33268ZM15.75 5.66602C15.75 5.29783 15.4142 4.99935 15 4.99935H7.5C7.08579 4.99935 6.75 5.29783 6.75 5.66602C6.75 6.03421 7.08579 6.33268 7.5 6.33268H15C15.4142 6.33268 15.75 6.03421 15.75 5.66602ZM15 7.33268C15.4142 7.33268 15.75 7.63116 15.75 7.99935C15.75 8.36754 15.4142 8.66602 15 8.66602H3C2.58579 8.66602 2.25 8.36754 2.25 7.99935C2.25 7.63116 2.58579 7.33268 3 7.33268H15ZM15.75 10.3327C15.75 9.96449 15.4142 9.66602 15 9.66602H7.5C7.08579 9.66602 6.75 9.96449 6.75 10.3327C6.75 10.7009 7.08579 10.9993 7.5 10.9993H15C15.4142 10.9993 15.75 10.7009 15.75 10.3327ZM15 11.9993C15.4142 11.9993 15.75 12.2978 15.75 12.666C15.75 13.0342 15.4142 13.3327 15 13.3327H3C2.58579 13.3327 2.25 13.0342 2.25 12.666C2.25 12.2978 2.58579 11.9993 3 11.9993H15Z" fill="white"/>
</svg>
