<svg width="20" height="20" viewBox="0 0 20 20" fill="none" xmlns="http://www.w3.org/2000/svg">
<path fill-rule="evenodd" clip-rule="evenodd" d="M12.5 8.33333C12.5 10.6345 10.6345 12.5 8.33333 12.5C6.03215 12.5 4.16667 10.6345 4.16667 8.33333C4.16667 6.03215 6.03215 4.16667 8.33333 4.16667C10.6345 4.16667 12.5 6.03215 12.5 8.33333ZM11.3283 13.3401C10.4529 13.865 9.42833 14.1667 8.33333 14.1667C5.11167 14.1667 2.5 11.555 2.5 8.33333C2.5 5.11167 5.11167 2.5 8.33333 2.5C11.555 2.5 14.1667 5.11167 14.1667 8.33333C14.1667 9.85635 13.583 11.243 12.6271 12.2819L16.0059 15.6607C16.3314 15.9862 16.3314 16.5138 16.0059 16.8393C15.6805 17.1647 15.1528 17.1647 14.8274 16.8393L11.3283 13.3401Z" fill="white"/>
</svg>
